<svg xmlns="http://www.w3.org/2000/svg" viewBox="0 0 200 60" fill="none">
  <defs>
    <linearGradient id="shieldGrad" x1="0%" y1="0%" x2="100%" y2="100%">
      <stop offset="0%" style="stop-color:#22c55e"/>
      <stop offset="100%" style="stop-color:#15803d"/>
    </linearGradient>
    <linearGradient id="lockGrad" x1="0%" y1="0%" x2="100%" y2="100%">
      <stop offset="0%" style="stop-color:#94a3b8"/>
      <stop offset="100%" style="stop-color:#64748b"/>
    </linearGradient>
  </defs>
  <!-- Shield -->
  <path d="M25 8 L45 12 L45 28 C45 38 35 46 25 50 C15 46 5 38 5 28 L5 12 L25 8Z" fill="url(#shieldGrad)" stroke="#1e293b" stroke-width="2"/>
  <!-- Lock body -->
  <rect x="18" y="24" width="14" height="12" rx="2" fill="url(#lockGrad)"/>
  <!-- Lock shackle -->
  <path d="M21 24 L21 20 C21 17 23 15 25 15 C27 15 29 17 29 20 L29 24" stroke="#94a3b8" stroke-width="2.5" fill="none"/>
  <!-- Checkmark -->
  <path d="M20 30 L24 34 L32 24" stroke="#22c55e" stroke-width="2" fill="none" stroke-linecap="round" stroke-linejoin="round"/>
  <!-- Orbit ring -->
  <ellipse cx="25" cy="30" rx="28" ry="12" stroke="#22c55e" stroke-width="1.5" fill="none" opacity="0.6" transform="rotate(-20, 25, 30)"/>
  <!-- Text: Aleo -->
  <text x="60" y="32" font-family="Inter, system-ui, sans-serif" font-size="24" font-weight="700" fill="#f8fafc">Aleo</text>
  <!-- Text: Cred -->
  <text x="108" y="32" font-family="Inter, system-ui, sans-serif" font-size="24" font-weight="700" fill="#22c55e">Cred</text>
  <!-- Tagline -->
  <text x="60" y="48" font-family="Inter, system-ui, sans-serif" font-size="9" fill="#94a3b8" font-style="italic">Prove your reputation. Reveal nothing else.</text>
</svg>
